<svg width="21" height="20" viewBox="0 0 21 20" fill="none" xmlns="http://www.w3.org/2000/svg">
<path fill-rule="evenodd" clip-rule="evenodd" d="M0 4.5C0 2.01472 2.01472 0 4.5 0H10C12.2091 0 14 1.79086 14 4V5C14 5.55228 13.5523 6 13 6C12.4477 6 12 5.55228 12 5V4C12 2.89543 11.1046 2 10 2H4.5C3.11929 2 2 3.11929 2 4.5V15.5C2 16.8807 3.11929 18 4.5 18H10C11.1046 18 12 17.1046 12 16V15C12 14.4477 12.4477 14 13 14C13.5523 14 14 14.4477 14 15V16C14 18.2091 12.2091 20 10 20H4.5C2.01472 20 0 17.9853 0 15.5V4.5ZM16.2929 6.29289C16.6834 5.90237 17.3166 5.90237 17.7071 6.29289L20.7071 9.29289C21.0976 9.68342 21.0976 10.3166 20.7071 10.7071L17.7071 13.7071C17.3166 14.0976 16.6834 14.0976 16.2929 13.7071C15.9024 13.3166 15.9024 12.6834 16.2929 12.2929L17.5858 11L9 11C8.44772 11 8 10.5523 8 10C8 9.44772 8.44772 9 9 9L17.5858 9L16.2929 7.70711C15.9024 7.31658 15.9024 6.68342 16.2929 6.29289Z" fill="#949496"/>
</svg>
