<svg width="20" height="22" viewBox="0 0 20 22" fill="none" xmlns="http://www.w3.org/2000/svg">
<path fill-rule="evenodd" clip-rule="evenodd" d="M10.2796 2.71579C10.097 2.66261 9.90302 2.66261 9.7204 2.71579C9.66784 2.7311 9.57548 2.7694 9.37898 2.91817C9.17233 3.07463 8.91934 3.29855 8.52513 3.64896L3.2855 8.3064C2.64315 8.87739 2.46105 9.04955 2.33446 9.23998C2.21268 9.42317 2.12195 9.6252 2.06594 9.83793C2.00771 10.0591 2.00001 10.3095 2.00001 11.169V16.17C2.00001 17.041 2.00082 17.6331 2.0388 18.0905C2.0758 18.536 2.14281 18.7634 2.22519 18.9219C2.41494 19.2872 2.71278 19.5851 3.07807 19.7748C3.23664 19.8572 3.46403 19.9242 3.90947 19.9612C4.36688 19.9992 4.95899 20 5.83001 20H6.00001V17C6.00001 14.7909 7.79088 13 10 13C12.2092 13 14 14.7909 14 17V20H14.17C15.041 20 15.6332 19.9992 16.0906 19.9612C16.536 19.9242 16.7634 19.8572 16.922 19.7748C17.2872 19.5851 17.5851 19.2872 17.7748 18.9219C17.8572 18.7634 17.9242 18.536 17.9612 18.0905C17.9992 17.6331 18 17.041 18 16.17V11.169C18 10.3095 17.9923 10.0591 17.9341 9.83793C17.8781 9.62521 17.7874 9.42317 17.6656 9.23998C17.539 9.04955 17.3569 8.87739 16.7145 8.3064L11.4749 3.64896C11.0807 3.29855 10.8277 3.07463 10.621 2.91817C10.4245 2.7694 10.3322 2.7311 10.2796 2.71579ZM9.16118 0.795564C9.70902 0.636016 10.291 0.636016 10.8389 0.795564C11.219 0.906267 11.5342 1.10095 11.8283 1.32363C12.1053 1.53335 12.4172 1.81064 12.7764 2.12995L18.0433 6.81159C18.0716 6.83679 18.0996 6.86165 18.1272 6.88619C18.6489 7.34941 19.043 7.69935 19.3311 8.13277C19.5747 8.49916 19.7561 8.90321 19.8682 9.32867C20.0007 9.83196 20.0004 10.359 20.0001 11.0566C20 11.0936 20 11.131 20 11.169V16.212C20 17.0305 20 17.7061 19.9544 18.2561C19.9069 18.8274 19.8051 19.3523 19.5497 19.8439C19.1702 20.5745 18.5745 21.1701 17.8439 21.5496C17.3523 21.805 16.8274 21.9069 16.2561 21.9543C15.7061 22 15.0305 22 14.212 22H13.805C13.7973 22 13.7894 22 13.7815 22C13.6604 22 13.5157 22.0001 13.3884 21.9895C13.2407 21.9773 13.0293 21.9458 12.8085 21.8311C12.5346 21.6888 12.3112 21.4654 12.1689 21.1915C12.0542 20.9707 12.0227 20.7593 12.0105 20.6116C11.9999 20.4843 12 20.3396 12 20.2185L12 17C12 15.8954 11.1046 15 10 15C8.89544 15 8.00001 15.8954 8.00001 17L8.00002 20.2185C8.00007 20.3396 8.00012 20.4843 7.98955 20.6116C7.97728 20.7593 7.94578 20.9707 7.83113 21.1915C7.68882 21.4654 7.46544 21.6888 7.19148 21.8311C6.97076 21.9458 6.75935 21.9773 6.61166 21.9895C6.4843 22.0001 6.33965 22 6.21853 22C6.21059 22 6.20274 22 6.19501 22H5.78804C4.9695 22 4.29395 22 3.74395 21.9543C3.1726 21.9069 2.64775 21.805 2.15612 21.5496C1.42554 21.1701 0.829863 20.5745 0.450361 19.8439C0.194977 19.3523 0.0931135 18.8274 0.0456654 18.2561C-9.68204e-06 17.7061 1.16565e-06 17.0305 1.43979e-05 16.212L1.48747e-05 11.169C1.48747e-05 11.131 -4.5564e-06 11.0936 -2.37491e-05 11.0566C-0.00038698 10.359 -0.000661403 9.83196 0.131863 9.32866C0.243889 8.90321 0.425337 8.49916 0.668898 8.13277C0.957024 7.69935 1.35111 7.34941 1.87278 6.8862C1.90042 6.86165 1.92842 6.83679 1.95677 6.81159L7.2236 2.12996C7.5828 1.81064 7.89473 1.53335 8.17173 1.32363C8.46585 1.10095 8.78105 0.906267 9.16118 0.795564Z" fill="#949496"/>
</svg>
