<svg width="24" height="24" viewBox="0 0 24 24" fill="none" xmlns="http://www.w3.org/2000/svg">
<path fill-rule="evenodd" clip-rule="evenodd" d="M6.58065 0C7.22201 0 7.74194 0.467181 7.74194 1.04348V2.43554C8.01166 2.43478 8.29395 2.43478 8.58944 2.43478H15.4106C15.7061 2.43478 15.9883 2.43478 16.2581 2.43554V1.04348C16.2581 0.467181 16.778 0 17.4194 0C18.0607 0 18.5806 0.467181 18.5806 1.04348V2.49881C19.4316 2.5637 20.1795 2.69982 20.8702 3.02219C21.9307 3.51719 22.7954 4.29417 23.3463 5.24709C23.7082 5.87318 23.8592 6.55167 23.9306 7.32469C24 8.07537 24 9.00289 24 10.1529V16.2819C24 17.4319 24 18.3594 23.9306 19.1101C23.8592 19.8831 23.7082 20.5616 23.3463 21.1877C22.7954 22.1406 21.9307 22.9176 20.8702 23.4126C20.1734 23.7378 19.4183 23.8735 18.558 23.9377C17.7226 24 16.6903 24 15.4105 24H8.58947C7.30967 24 6.27743 24 5.44199 23.9377C4.58169 23.8735 3.82661 23.7378 3.12983 23.4126C2.06932 22.9176 1.20462 22.1406 0.653729 21.1877C0.291781 20.5616 0.140802 19.8831 0.0693573 19.1101C-2.12863e-05 18.3594 -1.15948e-05 17.4319 3.10764e-07 16.282V10.1528C-1.15948e-05 9.00288 -2.12863e-05 8.07536 0.0693573 7.32469C0.140802 6.55167 0.291781 5.87318 0.653729 5.24709C1.20462 4.29417 2.06932 3.51719 3.12983 3.02219C3.82049 2.69982 4.56844 2.5637 5.41935 2.49881V1.04348C5.41935 0.467181 5.93928 0 6.58065 0ZM5.41935 4.59518C4.8353 4.65151 4.47797 4.74466 4.20048 4.87418C3.56417 5.17119 3.04535 5.63737 2.71482 6.20912C2.55378 6.48768 2.44327 6.85577 2.38397 7.49741C2.3315 8.06515 2.32387 8.77343 2.32276 9.73913H21.6772C21.6761 8.77343 21.6685 8.06515 21.616 7.49741C21.5567 6.85577 21.4462 6.48768 21.2852 6.20912C20.9546 5.63737 20.4358 5.17119 19.7995 4.87418C19.522 4.74466 19.1647 4.65151 18.5806 4.59518V5.91304C18.5806 6.48934 18.0607 6.95652 17.4194 6.95652C16.778 6.95652 16.2581 6.48934 16.2581 5.91304V4.52261C15.9803 4.52179 15.6818 4.52174 15.36 4.52174H8.64C8.31819 4.52174 8.01975 4.52179 7.74194 4.52261V5.91304C7.74194 6.48934 7.22201 6.95652 6.58065 6.95652C5.93928 6.95652 5.41935 6.48934 5.41935 5.91304V4.59518ZM21.6774 11.8261H2.32258V16.2365C2.32258 17.4425 2.32351 18.2832 2.38397 18.9374C2.44327 19.579 2.55378 19.9471 2.71482 20.2257C3.04535 20.7974 3.56417 21.2636 4.20048 21.5606C4.51048 21.7053 4.92013 21.8046 5.63421 21.8579C6.3622 21.9122 7.29782 21.913 8.64 21.913H15.36C16.7022 21.913 17.6378 21.9122 18.3658 21.8579C19.0799 21.8046 19.4895 21.7053 19.7995 21.5606C20.4358 21.2636 20.9546 20.7974 21.2852 20.2257C21.4462 19.9471 21.5567 19.579 21.616 18.9374C21.6765 18.2832 21.6774 17.4425 21.6774 16.2365V11.8261ZM13.5484 18.087C13.5484 17.5107 14.0683 17.0435 14.7097 17.0435H17.4194C18.0607 17.0435 18.5806 17.5107 18.5806 18.087C18.5806 18.6632 18.0607 19.1304 17.4194 19.1304H14.7097C14.0683 19.1304 13.5484 18.6632 13.5484 18.087Z" fill="#949496"/>
</svg>
